<svg width="680" height="248" viewBox="0 0 680 248" fill="none" xmlns="http://www.w3.org/2000/svg">
<g clip-path="url(#clip0_1_6)">
<path d="M317.903 66.0451C318.994 66.807 320.267 67.9098 321.702 69.3333C323.238 70.8571 324.652 72.0401 325.926 72.8622C327.199 73.6842 328.552 74.0852 329.987 74.0852C333.948 74.0852 337.646 71.599 341.061 66.6266C344.476 61.6541 347.244 56.6416 349.326 51.609L348.497 51.1078C347.952 51.7694 347.426 52.2105 346.921 52.411C346.416 52.6316 345.729 52.7318 344.86 52.7318C343.425 52.7318 341.93 52.1905 340.394 51.0877C338.858 50.005 337.019 48.4612 334.938 46.4962C333.726 45.4135 332.513 44.391 331.301 43.4687C330.088 42.5464 329.098 42.0652 328.33 42.0652C327.219 42.0652 325.542 43.4887 323.278 46.3358C321.015 49.183 317.843 53.4536 313.761 59.1278L309.456 65.0426H308.143C308.244 63.9599 308.305 62.3559 308.305 60.2907C308.305 53.614 307.173 48.9424 304.91 46.2556C302.647 43.5689 299.535 42.2456 295.574 42.2456C292.826 42.2456 290.179 43.1278 287.632 44.8722C285.086 46.6165 282.722 48.8421 280.519 51.5088C278.317 54.1955 275.387 58.1053 271.749 63.2381L268.274 68.1704L268.941 68.9925L281.348 62.9173V124.291L273.568 130.687V131.669H310.447V68.8321C310.891 67.7494 311.518 66.807 312.346 66.0451C313.175 65.2832 313.862 64.9023 314.407 64.9023C315.62 64.9023 316.772 65.2832 317.883 66.0451H317.903ZM102.431 109.033C106.513 115.749 112.131 120.962 119.305 124.612C126.478 128.281 134.46 130.105 143.291 130.105C148.585 130.105 159.113 121.524 174.875 104.341L174.047 103.519C170.854 105.163 168.065 106.346 165.701 107.048C163.337 107.769 160.932 108.11 158.507 108.11C150.566 108.11 143.614 105.644 137.673 100.732C131.712 95.7995 127.024 89.5238 123.609 81.8647H144.786C147.11 81.8647 150.626 80.9624 155.375 79.1579C160.124 77.3534 164.367 75.2682 168.106 72.9223C171.844 70.5764 173.723 68.6917 173.723 67.2682C173.056 58.5263 170.025 51.4286 164.63 46.015C159.234 40.6015 151.556 37.8947 141.634 37.8947C137.107 37.8947 131.288 39.3183 124.195 42.1654C117.082 45.0125 110.656 49.985 104.937 57.1028C99.1982 64.2206 96.3288 73.6241 96.3288 85.3333C96.3288 94.416 98.3697 102.316 102.452 109.053L102.431 109.033ZM121.204 49.2231C122.922 46.7168 125.044 45.4536 127.569 45.4536C130.54 45.4536 133.268 46.9373 135.753 49.8847C138.239 52.8321 140.219 56.8622 141.715 61.9549C143.21 67.0476 143.998 72.7018 144.119 78.9373H122.457C119.911 72.2607 118.658 65.9649 118.658 60.0702C118.658 55.3584 119.507 51.7494 121.224 49.2431L121.204 49.2231ZM349.164 107.97C352.7 114.747 357.712 120.14 364.219 124.13C370.725 128.12 378.222 130.125 386.709 130.125C390.246 130.125 395.399 128.722 402.168 125.935C408.938 123.148 415.182 118.256 420.86 111.258C426.538 104.261 429.367 94.797 429.367 82.8672C429.367 74.6667 427.609 67.1479 424.073 60.3108C420.537 53.4737 415.505 48.0602 408.938 44.0702C402.37 40.0802 394.853 38.0752 386.366 38.0752C382.83 38.0752 377.717 39.4787 370.988 42.2657C364.259 45.0526 358.055 50.005 352.377 57.1228C346.699 64.2406 343.87 73.8045 343.87 85.8346C343.87 93.8145 345.628 101.213 349.164 107.99V107.97ZM374.302 45.614C381.9 45.614 389.963 57.5439 398.45 81.3835C403.199 95.1579 405.563 105.444 405.563 112.241C405.563 117.714 404.189 121.003 401.42 122.085C400.309 122.306 399.481 122.406 398.935 122.406C394.974 122.406 390.913 119.419 386.77 113.464C382.628 107.509 378.465 98.5664 374.282 86.6366C369.755 73.5038 367.492 63.3985 367.492 56.2807C367.492 49.1629 369.755 45.614 374.282 45.614H374.302ZM0.161659 126.677V127.659H49.6092V126.677L41.0009 117.494V89.4436H47.6087C63.4917 89.4436 75.7778 85.995 84.4872 79.0977C93.1966 72.2005 97.5614 62.7368 97.5614 50.7068C97.5614 41.8446 95.4397 34.9474 91.1961 30.0351C86.9525 25.1028 80.8903 21.6942 73.0094 19.7694C65.1285 17.8647 55.0652 16.9023 42.8195 16.9023H0V17.8847L8.93168 26.4261L8.77002 117.494L0.161659 126.677ZM41.0211 19.8496H44.6584C49.6294 19.8496 53.5699 20.7719 56.4797 22.6366C59.3896 24.5013 61.6124 27.7895 63.0876 32.4812C64.5829 37.193 65.3104 43.8496 65.3104 52.4912C65.3104 61.6742 64.5627 68.7318 63.0876 73.6642C61.5922 78.5965 59.4502 81.9449 56.6414 83.7494C53.8326 85.5539 50.1144 86.4561 45.4869 86.4561H41.0211V19.8496ZM234.891 125.534C237.215 128.602 240.448 130.125 244.651 130.125C248.854 130.125 252.451 128.461 255.806 125.113C259.16 121.784 263.505 116.331 268.779 108.792C269.001 108.471 270.092 106.887 272.093 104.04L271.426 103.218L259.18 109.293V0L258.19 0.320802H258.029L219.493 11.9699V12.9524L229.738 16.5614V40.5213C227.536 40.0802 224.828 39.8596 221.635 39.8596C216.886 39.8596 211.208 41.2231 204.6 43.9699C197.992 46.6967 192.051 51.7293 186.818 59.0677C181.584 66.406 178.957 76.3509 178.957 88.9424C178.957 100.431 181.483 109.815 186.555 117.093C191.627 124.371 199.447 128.662 210.036 129.965C211.026 130.065 213.512 128.241 217.472 124.471C221.433 120.702 226.182 115.749 231.698 109.614V109.454H231.86C231.537 117.113 232.527 122.466 234.83 125.534H234.891ZM229.758 107.97C228.546 109.073 227.131 109.915 225.535 110.516C223.939 111.118 222.524 111.419 221.312 111.419C216.462 111.419 213.006 108.01 210.986 101.153C208.945 94.3158 207.934 84.4912 207.934 71.6992C207.934 61.3133 208.945 54.1153 210.986 50.1253C213.027 46.1353 215.815 44.1303 219.331 44.1303C221.756 44.1303 223.939 45.2531 225.858 47.4987C227.778 49.7444 229.092 53.4336 229.738 58.5664V107.95L229.758 107.97ZM85.2551 184.662H84.4266L60.4404 134.456L24.7137 134.777V135.759L33.9687 152.16V245.534H68.8669V244.712C58.2782 236.17 50.4377 226.065 45.305 214.356C40.1724 202.647 37.606 188.211 37.606 171.028V160.04H38.4345L71.0089 226.005H72.8276L100.451 158.556H101.441L101.603 236.01L92.6712 244.551V245.534H133.854L133.692 144.281L139.977 135.739V134.757H105.422L85.2551 184.642V184.662ZM485.019 226.827V224.361L486.514 195.308C486.837 190.817 487.019 186.566 487.019 182.516C487.019 176.722 486.352 171.87 485.039 168C483.705 164.11 481.24 161.103 477.602 158.977C473.965 156.852 468.772 155.769 462.063 155.769C459.193 155.769 454.808 156.692 448.908 158.556C443.007 160.421 436.258 164.612 428.64 171.108C421.042 177.624 414.313 187.108 408.473 199.579L408.978 200.401L439.572 191.86C437.592 185.624 436.602 180.311 436.602 175.94C436.602 172.331 437.309 169.644 438.744 167.9C440.178 166.155 442.098 165.273 444.523 165.273C448.382 165.273 451.474 167.699 453.778 172.571C456.102 177.444 457.193 183.92 457.092 192.02L438.905 199.9C430.075 203.95 423.083 208.261 417.91 212.872C412.737 217.464 410.13 223.218 410.13 230.095C410.13 235.569 411.868 239.86 415.343 242.967C418.819 246.095 423.426 247.639 429.145 247.639C435.874 247.639 441.431 245.554 445.857 241.404C450.262 237.253 454.061 231.619 457.274 224.501H458.102C458.001 225.604 457.941 227.188 457.941 229.253C457.941 235.93 459.072 240.622 461.335 243.368C463.599 246.095 466.711 247.479 470.671 247.479C474.632 247.479 478.269 245.835 481.583 242.546C484.897 239.258 489.141 233.905 494.314 226.466L497.951 221.373L497.284 220.551L485.039 226.787L485.019 226.827ZM456.728 218.947C455.192 221.895 453.374 224.12 451.272 225.584C449.171 227.068 447.19 227.789 445.311 227.789C443.553 227.789 441.896 227.048 440.34 225.584C438.804 224.1 438.016 221.835 438.016 218.767C438.016 215.158 439.471 211.549 442.401 207.94C445.311 204.331 450.201 200.221 457.031 195.629L456.708 218.927L456.728 218.947ZM671.472 170.967C665.794 163.85 659.59 158.897 652.861 156.11C646.132 153.323 641.02 151.92 637.484 151.92C628.996 151.92 621.479 153.925 614.912 157.915C608.344 161.905 603.313 167.318 599.776 174.155C596.24 180.992 594.482 192.521 594.482 200.722C594.482 212.652 597.331 218.105 602.989 225.103C608.668 232.1 614.892 236.992 621.681 239.779C628.471 242.566 633.624 243.97 637.14 243.97C645.627 243.97 653.124 241.965 659.631 237.975C666.138 233.985 671.149 228.591 674.685 221.815C678.222 215.038 679.98 207.659 679.98 199.659C679.98 187.629 677.151 178.065 671.472 170.947V170.967ZM649.568 200.501C645.385 212.431 641.222 221.373 637.079 227.328C632.937 233.283 628.895 236.271 624.935 236.271C624.389 236.271 623.561 236.17 622.449 235.95C619.701 234.867 618.307 231.579 618.307 226.105C618.307 219.328 620.671 209.043 625.42 195.248C633.907 171.409 641.949 159.479 649.568 159.479C654.094 159.479 656.357 163.028 656.357 170.145C656.357 177.263 654.094 187.368 649.568 200.501ZM580.438 227.148V117.875L579.448 118.195H579.286L540.751 129.845V130.827L550.996 134.436V158.396C548.793 157.955 546.085 157.734 542.893 157.734C538.144 157.734 532.466 159.098 525.858 161.845C519.25 164.571 513.309 169.604 508.075 176.942C502.841 184.281 500.215 194.226 500.215 206.817C500.215 218.306 502.74 227.689 507.813 234.967C512.885 242.246 520.705 246.536 531.294 247.84C532.284 247.94 534.769 246.115 538.73 242.346C542.691 238.576 547.439 233.624 552.956 227.489V227.328H553.118C552.794 234.987 553.784 240.341 556.088 243.409C558.392 246.476 561.645 248 565.848 248C570.051 248 573.648 246.336 577.003 242.987C580.357 239.659 584.702 234.206 589.976 226.667C590.198 226.346 591.289 224.762 593.29 221.915L592.623 221.093L580.377 227.168L580.438 227.148ZM550.996 225.845C549.783 226.947 548.369 227.789 546.772 228.391C545.176 228.992 543.761 229.293 542.549 229.293C537.699 229.293 534.244 225.885 532.203 219.028C530.162 212.19 529.151 202.366 529.151 189.574C529.151 179.188 530.162 171.99 532.203 168C534.244 164.01 537.032 162.005 540.549 162.005C542.973 162.005 545.156 163.128 547.076 165.373C548.995 167.619 550.309 171.308 550.955 176.441V225.825L550.996 225.845ZM397.52 184.662C397.52 176.12 395.479 169.203 391.398 163.91C387.316 158.596 380.93 155.95 372.221 155.95C367.593 155.95 359.874 163.008 349.063 177.123V118.216H348.073L319.964 126.717V238.175L312.366 244.571V245.554H356.843V244.571L349.063 238.175V182.055C351.932 178.005 355.287 175.98 359.146 175.98C365.209 175.98 368.24 179.529 368.24 186.647V238.175L360.46 244.571V245.554H404.937V244.571L397.339 238.175L397.5 184.682L397.52 184.662ZM218.26 226.827V224.361L219.756 195.308C220.079 190.817 220.261 186.566 220.261 182.516C220.261 176.722 219.594 171.87 218.281 168C216.967 164.11 214.482 161.103 210.844 158.977C207.207 156.852 202.014 155.769 195.305 155.769C192.435 155.769 188.05 156.692 182.15 158.556C176.249 160.421 169.5 164.612 161.882 171.108C154.284 177.624 147.555 187.108 141.715 199.579L142.22 200.401L172.814 191.86C170.834 185.624 169.843 180.311 169.843 175.94C169.843 172.331 170.551 169.644 171.985 167.9C173.42 166.155 175.34 165.273 177.765 165.273C181.624 165.273 184.716 167.699 187.02 172.571C189.344 177.444 190.435 183.92 190.334 192.02L172.147 199.9C163.316 203.95 156.325 208.261 151.152 212.872C145.978 217.464 143.372 223.218 143.372 230.095C143.372 235.569 145.109 239.86 148.585 242.967C152.061 246.095 156.668 247.639 162.387 247.639C169.116 247.639 174.673 245.554 179.098 241.404C183.504 237.253 187.303 231.619 190.516 224.501H191.344C191.223 225.604 191.182 227.188 191.182 229.253C191.182 235.93 192.314 240.622 194.577 243.368C196.84 246.095 199.952 247.479 203.913 247.479C207.874 247.479 211.511 245.835 214.825 242.546C218.139 239.258 222.383 233.905 227.556 226.466L231.193 221.373L230.526 220.551L218.281 226.787L218.26 226.827ZM189.99 218.947C188.454 221.895 186.616 224.12 184.534 225.584C182.433 227.068 180.452 227.789 178.573 227.789C176.815 227.789 175.158 227.048 173.602 225.584C172.066 224.1 171.278 221.835 171.278 218.767C171.278 215.158 172.733 211.549 175.663 207.94C178.573 204.331 183.463 200.221 190.293 195.629L189.97 218.927L189.99 218.947ZM294.341 225.504C286.622 225.504 279.651 222.797 273.427 217.383C267.203 211.97 262.313 205.373 258.796 197.614C255.26 189.855 253.502 182.737 253.502 176.281C253.502 171.91 254.31 168.642 255.907 166.516C257.503 164.391 259.625 163.308 262.272 163.308C266.576 163.308 270.517 166.617 274.093 173.233C277.67 179.85 279.974 187.429 280.964 195.95L281.792 196.451L309.416 173.153C308.749 171.188 307.133 168.842 304.546 166.095C301.96 163.368 298.322 160.962 293.634 158.877C288.946 156.792 283.47 155.769 277.185 155.769C272.659 155.769 266.9 157.213 259.908 160.12C252.896 163.028 246.591 167.98 240.974 174.977C235.356 181.975 232.547 191.278 232.547 202.867C232.547 212.17 234.527 220.211 238.508 226.987C242.469 233.764 247.985 238.957 255.038 242.566C262.09 246.175 270.032 247.98 278.842 247.98C281.59 247.98 285.895 245.594 291.735 240.842C297.574 236.09 304.081 229.774 311.255 221.895L310.426 220.912C304.586 223.98 299.231 225.504 294.382 225.504H294.341Z" fill="#FDF9F3"/>
</g>
<defs>
<clipPath id="clip0_1_6">
<rect width="680" height="248" fill="white"/>
</clipPath>
</defs>
</svg>
